# File created by Blade
# Date/Time:  Wed Apr 08 14:10:35 2015
# Frame Rate: 120.000 fps
#------------------------------------------------------
:FULLY-SPECIFIED
:DEGREES
755
root 2.483060 33.100630 13.495325 10.033378 2.946782 -5.688504
Spine -11.347689 -6.596926 5.964943
Head 7.017025 -3.357035 -1.620875
LeftShoulder -23.043629 41.252068 19.043062
LeftArm 57.541786 -59.059639 -61.019407
LeftForeArm 11.017668 -0.000000 -2.841126
LeftHand 1.458919 -0.000000 3.840055
LeftHandThumb1 -26.253704 0.000000 33.147579
RightShoulder -8.144582 3.556834 -32.435467
RightArm 11.059189 15.001351 37.263637
RightForeArm -16.229161 -0.000000 1.041494
RightHand 0.530090 0.000000 1.944919
RightHandThumb1 -24.326973 -0.000000 -32.862282
LeftUpLeg -8.296307 -6.601950 4.053798
LeftLeg 1.829056 -0.000000 -0.000000
LeftFoot -8.049295 6.067205 -16.483766
LeftToeBase -6.035826 -0.000000 0.000000
RightUpLeg -8.312739 8.376604 5.749008
RightLeg 2.440287 -0.000000 -0.000000
RightFoot -7.397040 -19.112071 8.679940
RightToeBase -0.095381 -0.000000 0.000000
756
root 2.470044 33.089664 13.504149 9.983878 2.942041 -5.523708
Spine -11.361753 -6.633860 5.738291
Head 7.200603 -3.404114 -1.542996
LeftShoulder -22.975420 41.227557 19.128758
LeftArm 57.579150 -59.088341 -61.008185
LeftForeArm 11.025319 -0.000000 -2.749080
LeftHand 1.542164 -0.000000 3.909234
LeftHandThumb1 -26.253704 0.000000 33.147579
RightShoulder -8.174139 3.527224 -32.409981
RightArm 11.115713 15.080262 37.338661
RightForeArm -16.170233 0.000000 1.063185
RightHand 0.629341 -0.000000 1.819700
RightHandThumb1 -24.326973 -0.000000 -32.862282
LeftUpLeg -8.230567 -6.740051 3.921193
LeftLeg 1.837428 -0.000000 -0.000000
LeftFoot -8.118623 6.094223 -16.521308
LeftToeBase -5.996631 -0.000000 0.000000
RightUpLeg -8.198518 8.350526 5.606005
RightLeg 2.378325 -0.000000 -0.000000
RightFoot -7.462469 -19.003007 8.605226
RightToeBase -0.328367 -0.000000 0.000000
757
root 2.457892 33.079114 13.513306 9.966025 2.931184 -5.365306
Spine -11.418086 -6.695836 5.549484
Head 7.399983 -3.396220 -1.523575
LeftShoulder -22.981081 41.234903 19.138705
LeftArm 57.710693 -59.135755 -61.090888
LeftForeArm 11.044183 -0.000000 -2.641960
LeftHand 1.689863 -0.000000 3.851442
LeftHandThumb1 -26.253704 0.000000 33.147579
RightShoulder -8.166093 3.599565 -32.418566
RightArm 11.112887 15.133091 37.411217
RightForeArm -16.165598 0.000000 1.107617
RightHand 0.628412 0.000000 1.735906
RightHandThumb1 -24.326973 -0.000000 -32.862282
LeftUpLeg -8.173420 -6.875987 3.797639
LeftLeg 1.800352 -0.000000 -0.000000
LeftFoot -8.146293 6.158345 -16.481693
LeftToeBase -5.976083 -0.000000 0.000000
RightUpLeg -8.099257 8.314927 5.464839
RightLeg 2.283067 -0.000000 -0.000000
RightFoot -7.523781 -18.893585 8.540936
RightToeBase -0.469377 -0.000000 0.000000
758
root 2.445970 33.070343 13.523626 9.957534 2.889692 -5.191700
Spine -11.490202 -6.696206 5.330046
Head 7.624819 -3.410054 -1.501654
LeftShoulder -22.950678 41.282313 19.150159
LeftArm 57.816478 -59.180443 -61.117547
LeftForeArm 11.048285 -0.000000 -2.548087
LeftHand 1.865802 -0.000000 4.027911
LeftHandThumb1 -26.253704 0.000000 33.147579
RightShoulder -8.149078 3.628976 -32.381363
RightArm 11.073874 15.226769 37.426027
RightForeArm -16.142207 -0.000000 1.216024
RightHand 0.395861 -0.000000 1.703074
RightHandThumb1 -24.326973 -0.000000 -32.862282
LeftUpLeg -8.105549 -6.956469 3.661170
LeftLeg 1.732377 -0.000000 -0.000000
LeftFoot -8.129854 6.161374 -16.525107
LeftToeBase -6.005499 -0.000000 0.000000
RightUpLeg -8.009756 8.235881 5.319208
RightLeg 2.187205 -0.000000 -0.000000
RightFoot -7.574867 -18.768666 8.463677
RightToeBase -0.559122 -0.000000 0.000000
759
root 2.429442 33.061249 13.535547 9.939631 2.867528 -5.050760
Spine -11.554516 -6.732490 5.143994
Head 7.830804 -3.401182 -1.480235
LeftShoulder -22.952738 41.321624 19.155713
LeftArm 58.015312 -59.247292 -61.274628
LeftForeArm 11.143344 0.000000 -2.411014
LeftHand 2.030326 0.000000 4.182515
LeftHandThumb1 -26.253704 0.000000 33.147579
RightShoulder -8.157404 3.601389 -32.354001
RightArm 11.146290 15.308146 37.488223
RightForeArm -16.150450 -0.000000 1.229685
RightHand 0.503153 -0.000000 1.647597
RightHandThumb1 -24.326973 -0.000000 -32.862282
LeftUpLeg -7.995921 -7.077283 3.556349
LeftLeg 1.597933 -0.000000 -0.000000
LeftFoot -8.116843 6.266065 -16.464099
LeftToeBase -5.983626 -0.000000 0.000000
RightUpLeg -7.885896 8.114299 5.229054
RightLeg 2.037984 -0.000000 -0.000000
RightFoot -7.490642 -18.690112 8.193088
RightToeBase -0.845774 -0.000000 0.000000
760
root 2.412410 33.052259 13.547434 9.942054 2.823271 -4.909486
Spine -11.633719 -6.751168 4.947691
Head 8.021130 -3.378780 -1.430702
LeftShoulder -22.921718 41.309147 19.200760
LeftArm 57.943343 -59.259060 -61.155021
LeftForeArm 11.068962 -0.000000 -2.265234
LeftHand 2.042743 -0.000000 4.166342
LeftHandThumb1 -26.253704 0.000000 33.147579
RightShoulder -8.183585 3.607150 -32.347009
RightArm 11.211860 15.309867 37.572234
RightForeArm -16.160398 -0.000000 1.235171
RightHand 0.734684 -0.000000 1.597359
RightHandThumb1 -24.326973 -0.000000 -32.862282
LeftUpLeg -7.863897 -7.230578 3.452734
LeftLeg 1.379269 -0.000000 -0.000000
LeftFoot -8.079782 6.456729 -16.407977
LeftToeBase -6.067916 -0.000000 0.000000
RightUpLeg -7.764409 8.050612 5.128008
RightLeg 1.857098 -0.000000 -0.000000
RightFoot -7.586583 -18.600819 8.161510
RightToeBase -0.616758 -0.000000 0.000000
761
root 2.392790 33.044851 13.560293 9.949805 2.764667 -4.790589
Spine -11.722348 -6.749202 4.776467
Head 8.204160 -3.369173 -1.411013
LeftShoulder -22.933080 41.326563 19.214839
LeftArm 58.079186 -59.273148 -61.215049
LeftForeArm 11.042962 0.000000 -2.193532
LeftHand 2.070542 -0.000000 4.486389
LeftHandThumb1 -26.253704 0.000000 33.147579
RightShoulder -8.174438 3.555999 -32.308831
RightArm 11.269664 15.351042 37.616283
RightForeArm -16.158110 -0.000000 1.273055
RightHand 0.767467 -0.000000 1.535110
RightHandThumb1 -24.326973 -0.000000 -32.862282
LeftUpLeg -7.725745 -7.313073 3.363050
LeftLeg 1.150584 -0.000000 -0.000000
LeftFoot -8.055298 6.555543 -16.381087
LeftToeBase -5.960695 -0.000000 0.000000
RightUpLeg -7.674596 7.941031 5.068523
RightLeg 1.765106 -0.000000 -0.000000
RightFoot -7.567542 -18.451776 7.930500
RightToeBase -0.734386 -0.000000 0.000000
762
root 2.374995 33.038279 13.574017 9.945136 2.694059 -4.650151
Spine -11.797029 -6.746583 4.589218
Head 8.390961 -3.332559 -1.404479
LeftShoulder -22.902259 41.320532 19.221072
LeftArm 58.319377 -59.396798 -61.415900
LeftForeArm 11.186038 -0.000000 -2.113550
LeftHand 2.046451 0.000000 4.741701
LeftHandThumb1 -26.253704 0.000000 33.147579
RightShoulder -8.147300 3.543475 -32.241550
RightArm 11.300193 15.294873 37.575247
RightForeArm -16.076100 -0.000000 1.340062
RightHand 0.488575 -0.000000 1.515733
RightHandThumb1 -24.326973 -0.000000 -32.862282
LeftUpLeg -7.573816 -7.325419 3.232387
LeftLeg 0.924373 -0.000000 -0.000000
LeftFoot -7.987214 6.681881 -16.272029
LeftToeBase -5.881673 -0.000000 0.000000
RightUpLeg -7.545164 7.786022 4.997147
RightLeg 1.541021 -0.000000 -0.000000
RightFoot -7.391616 -18.430807 7.588566
RightToeBase -1.056345 -0.000000 0.000000
